<svg width="125" height="125" xmlns="http://www.w3.org/2000/svg">
 <!-- Created with SVG-edit - http://svg-edit.googlecode.com/ -->
 <defs>
  <radialGradient id="svg_9" cx="0.5" cy="0.5" r="1.991837">
   <stop offset="0" stop-color="#ff0000"/>
   <stop offset="1" stop-color="#ffc9c9"/>
  </radialGradient>
 </defs>
 <g>
  <title>Layer 1</title>
  <path fill="url(#svg_9)" stroke-width="5" stroke-linejoin="null" stroke-linecap="null" id="svg_3" d="m77.292412,28.255787c0,-0.494547 0,-0.989107 -0.478218,-1.483658c-0.478233,-0.494539 -0.478233,-0.989084 -0.956474,-1.483631c-0.478188,-0.494545 -0.207825,-1.063757 -1.434662,-1.978203c-0.387962,-0.289167 -0.331619,-0.721439 -0.956459,-0.989084c-0.441818,-0.189253 -0.514626,-0.305286 -0.956429,-0.494545c-0.624832,-0.267654 -1.288094,-0.721445 -1.912933,-0.989092c-0.883652,-0.378523 -2.428627,-0.390633 -3.825821,-0.989113c-0.987946,-0.423178 -2.391136,-0.989082 -3.347561,-1.483629c-0.956467,-0.494545 -1.912922,-1.48365 -2.869392,-1.978197c-0.956436,-0.494551 -1.288059,-1.215991 -1.912895,-1.483636c-0.441811,-0.189271 -0.95647,-0.494545 -1.434666,-0.494545c-0.478226,0 -0.956455,0 -1.434696,0c-0.478226,0 -0.956463,0 -1.434692,0c0,0 -0.478207,0 -0.95644,0c-0.956463,0 -1.471077,0.305274 -1.912926,0.494545c-0.624798,0.267646 -0.773441,0.532187 -0.956432,0.989085c-0.25882,0.646168 -1.91293,0.989098 -2.391121,1.483658c-0.478249,0.494545 -0.140106,1.133936 -0.478249,1.483637c-0.338154,0.349699 -0.956455,0.494545 -1.434681,0.989082c-0.478222,0.494547 -0.697643,0.837488 -0.956455,1.48366c-0.182999,0.456898 -0.956444,0.494545 -0.956444,0.98909c0,0.494545 -0.478233,0.494545 -0.478233,0.989084c0,0.494545 0,0.989113 0,0.989113c0,0.494545 0.140064,0.639391 0.478233,0.98909c0.338142,0.349699 -0.95647,0.989092 -1.434681,1.483631c-0.47823,0.494551 -1.029255,0.610594 -1.912914,0.989111c-0.624832,0.267653 -0.331612,0.721445 -0.956451,0.989092c-0.441841,0.189259 -0.992863,0.305296 -1.434689,0.494545c-0.624817,0.267645 -1.096523,1.133945 -1.434681,1.483637c-0.338146,0.349701 -0.618298,0.144859 -0.956455,0.494558c-0.338142,0.349709 -0.2952,0.532196 -0.478226,0.989094c-0.258812,0.646152 -1.175858,0.342941 -1.434685,0.989098c-0.366024,0.913811 -0.697639,1.332027 -0.956444,1.978188c-0.183025,0.456905 0,0.989101 -0.47823,1.483646c0,0 0,0.494545 0,0.989086c0,0.49456 0,0.989109 0,1.483654c0,0.494545 0.47823,0.494545 0.47823,0.989094c0,0.494545 0.47823,0.989082 0.47823,1.483631c0,0.494564 0.295216,1.026756 0.478214,1.483654c0.258827,0.64616 0.478241,0.989094 0.478241,1.483631c0,0.494568 0,0.989113 -0.478241,1.483658c-0.478214,0.494545 -1.350719,0.542961 -1.912899,1.483643c-0.251423,0.420689 -0.705046,1.062943 -0.956457,1.483646c-0.562191,0.940674 -1.434681,0.98909 -1.912909,1.483646c-0.478226,0.494545 -0.956457,0.494545 -1.434689,0.989079c-0.478209,0.49456 -0.95645,0.989105 -1.912893,1.483654c-0.956467,0.494556 -2.001879,0.837051 -2.869366,1.483646c-0.548658,0.408951 -0.956459,0.989098 -1.434696,1.483643c-0.478214,0.494553 -0.956444,0.989101 -1.434673,1.483646c-0.478222,0.494541 -0.697626,0.837471 -0.95645,1.483624c-0.18301,0.456924 -0.140074,0.63942 -0.478231,0.989105c-0.338154,0.349705 0,0.494545 0,0.989094c0,0.494556 0,0.989101 0,1.483635c0,0.49456 0,0.989105 0,1.483665c0,0.494541 0.140087,1.133938 0.478231,1.483631c0.338139,0.349693 0.514616,0.30529 0.95645,0.49453c0.624844,0.267662 0.809855,0.721474 1.434673,0.98912c0.441833,0.189247 0.956469,0.494545 1.434696,0.494545c0.478216,0 0.478216,0.494545 0.956455,0.494545c0.478231,0 0.618301,-0.349709 0.956444,0c0.33815,0.349693 0.140087,0.639389 0.47823,0.98909c0.338152,0.349693 0.956451,0.49453 0.956451,0.989105c0,0 0.140087,0.144844 0.478231,0.494545c0.33815,0.349678 0,1.483635 0,1.97818c0,0 0,0.49456 0,0.989105c0,0.494545 0,0.98909 0,1.483643c0,0.494545 0.219412,0.837502 0.478239,1.48365c0.182999,0.456894 0.331608,0.721443 0.95644,0.98909c0.883661,0.378517 0.956457,0.494545 0.956457,0.98909c0,0.494545 0,0.98909 0,0.98909c0,0.49456 0,0.989105 0,1.48365c0,0.494545 0,0.98909 0,1.483635c0,0.494553 0,0.989113 0,1.483658c0,0.494545 0,0.98909 0,0.98909c0.956459,0 1.096525,0.144859 1.434668,0.494545c0.676327,0.699394 0.295231,1.026741 0.478241,1.483643c0.258821,0.646141 0.140079,0.639389 0.478226,0.989113c0.338144,0.34967 0.618307,0.144852 0.956457,0.49453c0.338142,0.349678 0.407799,0.580162 0.956459,0.98909c0.867481,0.646606 0.992855,0.799843 1.434685,0.98909c0.624828,0.267662 0.478214,0.98912 0.95644,0.98912c0.478241,0 0.478241,0.494537 0.956455,0.494537c0.47823,0 0.956463,0 1.434681,0c0.47823,0 0.956463,0 1.434689,0c0.478222,0 0.96925,0.113617 1.434666,0c1.04076,-0.254082 1.828621,-1.229591 2.869381,-1.483658c0.465439,-0.113617 1.288082,-0.721428 1.912899,-0.98909c0.441826,-0.189247 0.809864,-0.226891 1.434681,-0.494545c0.441818,-0.189247 0.809845,-0.226898 1.434677,-0.494545c0.883652,-0.378532 1.766327,-0.226898 2.391125,-0.49453c0.441853,-0.18927 0.956467,0 1.4347,0c0.47823,0 1.096531,-0.349724 1.434669,0c0.338158,0.34967 -0.338139,1.133942 0,1.48362c0.338158,0.349693 0.47823,0.494545 0.47823,0.98909c0,0.49456 0.140106,0.144875 0.478237,0.49456c0.676319,0.699387 0,1.483643 0,1.978188c0,0.494545 0,0.98909 0,1.483643c0,0.49456 0.112183,1.064392 0.478226,1.978188c0.258827,0.646149 1.045395,1.331612 1.912891,1.97821c0.548687,0.408928 1.36425,1.569237 1.91293,1.978188c0.867512,0.646584 1.944477,0.928589 2.869362,1.483643c1.491325,0.894989 2.306854,1.229576 3.347588,1.483635c0.930847,0.227249 1.434669,0 2.391121,0c0.478249,0 1.507484,0.378517 2.391136,0c1.249672,-0.535301 1.842484,-1.56926 2.391129,-1.978188c0.867508,-0.646614 1.517479,-0.91626 1.912926,-1.48365c0.625267,-0.897102 0.956429,-1.483627 1.434669,-1.978188c0.478233,-0.49456 0.809853,-0.721451 1.434692,-0.989105c0.441818,-0.18924 0.140083,-0.639404 0.478226,-0.98909c0.6763,-0.699387 0.956451,-0.494545 0.956451,-0.989082c0,-0.49456 0,-0.49456 0,-0.989113c0,-0.494545 -0.697647,-0.342949 -0.956451,-0.98909c-0.183006,-0.456932 -0.394264,-0.542953 -0.956467,-1.483627c-0.251427,-0.420685 -0.183014,-1.026756 0,-1.483658c0.258842,-0.646156 0.968819,-0.83065 1.912918,-0.98909c1.492729,-0.250511 1.91291,-0.494545 3.347588,-0.494545c0.478233,0 0.956444,0 1.434692,0c0.47821,0 0.956429,0 1.912903,0c0.956459,0 1.434662,-0.494537 2.391129,-0.494537c0.478226,0 1.434692,0 1.912918,0c0.478195,0 0.956436,0 1.434662,0c0.478241,0 0.956451,-0.494553 1.4347,-0.494553c0.478233,0 0.697655,-0.342964 0.956421,-0.989105c0.183052,-0.456894 0.809471,-1.08107 1.4347,-1.97818c0.395462,-0.56739 0.590431,-1.064407 0.956444,-1.97821c0.25882,-0.646149 0.773468,-1.026733 0.956459,-1.483635c0.258835,-0.646141 0.758377,0.204842 1.4347,-0.494545c0.33812,-0.349693 0.146576,-1.216003 -0.478233,-1.48365c-0.441841,-0.189255 -0.956467,-0.494545 -1.434662,-0.98909c-0.478256,-0.494545 -0.956451,-0.494545 -1.4347,-0.98909c-0.47821,-0.494545 -0.618286,-0.639412 -0.956459,-0.989105c-0.338127,-0.349693 -0.618301,-0.144844 -0.956436,-0.494545c-0.676361,-0.699387 -0.232567,-1.396492 -0.478233,-2.472733c-0.109894,-0.481323 -0.478249,-1.483643 -0.478249,-1.483643c0,-0.494545 0,-1.483643 0,-1.978218c0,-0.49453 0,-1.48362 0,-1.978165c0,-0.989105 0.295242,-1.521286 0.478249,-1.978195c0.258827,-0.646164 0.618309,-0.639397 0.956429,-0.98909c0.338173,-0.349709 0.295212,-0.532204 0.478241,-0.989098c0.25882,-0.646152 0.514626,-0.799828 0.956459,-0.989105c0.624817,-0.267624 0.886017,-1.07468 1.4347,-1.483635c0.86747,-0.646595 1.364258,-1.074696 1.912903,-1.483639c0.86747,-0.646599 1.434662,-0.989079 1.434662,-0.989079c0,-0.494568 0.514618,-0.305302 0.956459,-0.494568c0.624786,-0.267654 0.618294,-0.639389 0.956474,-0.989086c0.33812,-0.349712 0.393929,-0.240471 1.434662,-0.494553c0.465439,-0.113628 0.956444,-0.494553 1.4347,-0.989098c0.478226,-0.494545 1.039215,-0.916264 1.434662,-1.483646c0.625259,-0.897114 0.956459,-0.989094 1.434685,-1.483643c0.478233,-0.494545 0.773445,-1.026745 0.956474,-1.483643c0.258797,-0.646156 0.618279,-0.639393 0.956421,-0.989098c0.338181,-0.349701 0,-0.98909 0,-1.48365c0,-0.494553 0,-0.989086 0,-1.483639c0,-0.494545 0,-0.98909 0,-1.483635c0,-0.989113 -0.697624,-0.83749 -0.956421,-1.48365c-0.183029,-0.456905 -0.697662,-0.342934 -0.956474,-0.989094c-0.183037,-0.456898 -0.33165,-0.721439 -0.956467,-0.98909c-0.441818,-0.189274 -0.51461,-0.305294 -0.956459,-0.494564c-0.624809,-0.267643 -1.029243,-0.610573 -1.912872,-0.989086c-0.624817,-0.267654 -0.956482,-0.494545 -1.434677,-0.989094c-0.478233,-0.494545 -0.809914,-0.721443 -1.4347,-0.98909c-0.441841,-0.189274 -0.478233,0 -0.956459,0c-0.478195,0 -0.956436,0 -1.434669,0c-0.478233,0 -0.956467,0 -1.4347,0c-0.478203,0 -0.956459,0 -1.434654,0c-0.478249,0 -0.956459,0 -1.912949,0c-0.478188,0 -0.956421,0 -0.956421,0c-0.478249,0 -1.096527,0.349701 -1.4347,0c-0.338127,-0.349705 -0.478226,-0.494549 -0.478226,-0.989109c0,-0.494541 -0.478241,-0.494541 -0.478241,-1.483631c0,-0.494549 -0.14006,-0.144848 -0.478195,-0.494549c-0.33815,-0.349705 0.182991,-1.026741 0,-1.483658c-0.258835,-0.646156 -0.478226,-0.989082 -0.478226,-1.483627c0,-0.989101 0,-1.483646 0,-1.978205c0,-0.494543 -0.478249,-0.494543 -0.478249,-0.989082c0,-0.494555 -0.478218,-0.494555 -0.478218,-0.9891c0,0 0,0 -0.956474,0c-0.478226,0 -0.956429,0 -1.434669,0c-0.47821,0 -0.47821,-0.494545 -0.956451,-0.494545c-0.478241,0 -0.956459,0 -1.434662,0c-0.478256,0 -0.956459,0 -1.434692,0c-0.478226,0 -1.096535,0.349707 -1.434677,0c-0.338142,-0.349699 -0.478218,-0.494549 -0.956459,-0.494549l-0.478226,-0.494558l-0.478226,0l-0.478256,0"/>
 </g>
</svg>